<svg xmlns="http://www.w3.org/2000/svg" viewBox="0 0 64 64">
  <rect width="64" height="64" rx="14" fill="#F6821F"/>
  <path d="M44.5 41.5H21c-3 0-5.5-2.4-5.5-5.4 0-2.8 2.1-5.1 4.8-5.4.5-4.7 4.5-8.4 9.4-8.4 3.8 0 7.1 2.3 8.6 5.6.7-.4 1.6-.6 2.5-.6 2.7 0 4.9 2.1 5.1 4.7 2.6.3 4.6 2.4 4.6 5 0 2.7-2.3 4.9-5 4.9z" fill="#fff"/>
  <path d="M46.7 41.2c.2 0 .4-.1.4-.3l.4-1.3c.4-1.5.3-2.9-.4-3.9-.6-.9-1.7-1.5-2.9-1.5l-23.6-.3c-.2 0-.3-.1-.4-.2 0-.1-.1-.3 0-.4.1-.2.3-.4.5-.4l23.8-.3c2.8-.1 5.9-2.4 7-5.2l.9-2.4c0-.1.1-.2 0-.3-1.2-5.6-6.2-9.7-12.2-9.7-5.5 0-10.2 3.6-11.9 8.5-1.1-.8-2.5-1.3-4-1.1-2.7.3-4.9 2.5-5.2 5.2-.1.7 0 1.4.1 2-4.4.1-7.9 3.7-7.9 8.2 0 .4 0 .8.1 1.2 0 .2.2.3.4.3h28.9z" fill="#FBAD41"/>
</svg>
